<svg xmlns="http://www.w3.org/2000/svg" xmlns:xlink="http://www.w3.org/1999/xlink" width="895pt" height="636" viewBox="0 0 895 477"><g id="graph0" class="graph" transform="scale(1 1) rotate(0) translate(4 473)"><title>Legend</title><polygon fill="#fff" stroke="transparent" points="-4 4 -4 -473 891 -473 891 4 -4 4"/><g id="clust1" class="cluster"><title>clusterLegend</title><polygon fill="#fff" stroke="#000" points="8 -8 8 -461 879 -461 879 -8 8 -8"/><text x="443.5" y="-445.8" font-family="Times,serif" font-size="14" text-anchor="middle">Legend</text></g><g id="node1" class="node"><title>CPP</title><polygon fill="#4169e1" stroke="#000" points="115.5 -430 49.5 -430 49.5 -394 121.5 -394 121.5 -424 115.5 -430"/><polyline fill="none" stroke="#000" points="115.5 -430 115.5 -424"/><polyline fill="none" stroke="#000" points="121.5 -424 115.5 -424"/><text x="85.5" y="-408.3" font-family="Times,serif" font-size="14" text-anchor="middle">Foo.cpp</text></g><g id="node2" class="node"><title>CPP_LGD</title><polygon fill="#fff" stroke="transparent" points="420.5 -430 282.5 -430 282.5 -394 420.5 -394 420.5 -430"/><text x="351.5" y="-408.3" font-family="Times,serif" font-size="14" text-anchor="middle">: C++ source file</text></g><g id="edge1" class="edge"><title>CPP-&gt;CPP_LGD</title></g><g id="node3" class="node"><title>LIB</title><polygon fill="#4169e1" stroke="#000" points="116.5 -376 54.5 -376 54.5 -372 50.5 -372 50.5 -368 54.5 -368 54.5 -348 50.5 -348 50.5 -344 54.5 -344 54.5 -340 116.5 -340 116.5 -376"/><polyline fill="none" stroke="#000" points="54.5 -372 58.5 -372 58.5 -368 54.5 -368"/><polyline fill="none" stroke="#000" points="54.5 -348 58.5 -348 58.5 -344 54.5 -344"/><text x="85.5" y="-354.3" font-family="Times,serif" font-size="14" text-anchor="middle">Foo.so</text></g><g id="node4" class="node"><title>LIB_LGD</title><polygon fill="#fff" stroke="transparent" points="459.5 -376 243.5 -376 243.5 -340 459.5 -340 459.5 -376"/><text x="351.5" y="-354.3" font-family="Times,serif" font-size="14" text-anchor="middle">: Shared library (i.e. binary)</text></g><g id="edge2" class="edge"><title>LIB-&gt;LIB_LGD</title></g><g id="node5" class="node"><title>CS</title><polygon fill="#9400d3" stroke="#000" points="110.5 -322 54.5 -322 54.5 -286 116.5 -286 116.5 -316 110.5 -322"/><polyline fill="none" stroke="#000" points="110.5 -322 110.5 -316"/><polyline fill="none" stroke="#000" points="116.5 -316 110.5 -316"/><text x="85.5" y="-300.3" font-family="Times,serif" font-size="14" text-anchor="middle">Foo.cs</text></g><g id="node6" class="node"><title>CS_LGD</title><polygon fill="#fff" stroke="transparent" points="414.5 -322 288.5 -322 288.5 -286 414.5 -286 414.5 -322"/><text x="351.5" y="-300.3" font-family="Times,serif" font-size="14" text-anchor="middle">: C# source file</text></g><g id="edge3" class="edge"><title>CS-&gt;CS_LGD</title></g><g id="node7" class="node"><title>DLL</title><polygon fill="#9400d3" stroke="#000" points="118 -268 53 -268 53 -264 49 -264 49 -260 53 -260 53 -240 49 -240 49 -236 53 -236 53 -232 118 -232 118 -268"/><polyline fill="none" stroke="#000" points="53 -264 57 -264 57 -260 53 -260"/><polyline fill="none" stroke="#000" points="53 -240 57 -240 57 -236 53 -236"/><text x="85.5" y="-246.3" font-family="Times,serif" font-size="14" text-anchor="middle">Foo.dll</text></g><g id="node8" class="node"><title>DLL_LGD</title><polygon fill="#fff" stroke="transparent" points="468 -268 235 -268 235 -232 468 -232 468 -268"/><text x="351.5" y="-246.3" font-family="Times,serif" font-size="14" text-anchor="middle">: Assembly output (i.e. binary)</text></g><g id="edge4" class="edge"><title>DLL-&gt;DLL_LGD</title></g><g id="node9" class="node"><title>NUPKG</title><polygon fill="#9400d3" stroke="#000" points="155 -214 152 -218 131 -218 128 -214 16 -214 16 -178 155 -178 155 -214"/><text x="85.5" y="-192.3" font-family="Times,serif" font-size="14" text-anchor="middle">Mizux.Foo.nupkg</text></g><g id="node10" class="node"><title>NUPKG_LGD</title><polygon fill="#fff" stroke="transparent" points="478 -214 225 -214 225 -178 478 -178 478 -214"/><text x="351.5" y="-192.3" font-family="Times,serif" font-size="14" text-anchor="middle">: Nuget package file (i.e. archive)</text></g><g id="edge5" class="edge"><title>NUPKG-&gt;NUPKG_LGD</title></g><g id="node11" class="node"><title>A</title><polygon fill="#fff" stroke="#000" points="106.5 -160 58.5 -160 58.5 -124 112.5 -124 112.5 -154 106.5 -160"/><polyline fill="none" stroke="#000" points="106.5 -160 106.5 -154"/><polyline fill="none" stroke="#000" points="112.5 -154 106.5 -154"/><text x="85.5" y="-138.3" font-family="Times,serif" font-size="14" text-anchor="middle">A</text></g><g id="node12" class="node"><title>B</title><polygon fill="#fff" stroke="#000" points="372.5 -160 324.5 -160 324.5 -124 378.5 -124 378.5 -154 372.5 -160"/><polyline fill="none" stroke="#000" points="372.5 -160 372.5 -154"/><polyline fill="none" stroke="#000" points="378.5 -154 372.5 -154"/><text x="351.5" y="-138.3" font-family="Times,serif" font-size="14" text-anchor="middle">B</text></g><g id="edge6" class="edge"><title>A-&gt;B</title><path fill="none" stroke="#000" stroke-width="2" d="M112.78,-142C160.22,-142 260.24,-142 314.18,-142"/><polygon fill="#000" stroke="#000" stroke-width="2" points="314.33 -145.5 324.33 -142 314.33 -138.5 314.33 -145.5"/><text x="190" y="-145.8" font-family="Times,serif" font-size="14" text-anchor="middle">cmd</text></g><g id="node13" class="node"><title>CMD_LGD</title><polygon fill="#fff" stroke="transparent" points="844 -162 542 -162 542 -126 844 -126 844 -162"/><text x="693" y="-140.3" font-family="Times,serif" font-size="14" text-anchor="middle">: &apos;cmd [...] A&apos; will generate file B from A.</text></g><g id="edge7" class="edge"><title>B-&gt;CMD_LGD</title></g><g id="node14" class="node"><title>C</title><polygon fill="#fff" stroke="#000" points="106.5 -106 58.5 -106 58.5 -70 112.5 -70 112.5 -100 106.5 -106"/><polyline fill="none" stroke="#000" points="106.5 -106 106.5 -100"/><polyline fill="none" stroke="#000" points="112.5 -100 106.5 -100"/><text x="85.5" y="-84.3" font-family="Times,serif" font-size="14" text-anchor="middle">A</text></g><g id="node15" class="node"><title>D</title><polygon fill="#fff" stroke="#000" points="372.5 -106 324.5 -106 324.5 -70 378.5 -70 378.5 -100 372.5 -106"/><polyline fill="none" stroke="#000" points="372.5 -106 372.5 -100"/><polyline fill="none" stroke="#000" points="378.5 -100 372.5 -100"/><text x="351.5" y="-84.3" font-family="Times,serif" font-size="14" text-anchor="middle">B</text></g><g id="edge8" class="edge"><title>C-&gt;D</title><path fill="none" stroke="#000" stroke-dasharray="5 2" d="M112.78,-88C160.22,-88 260.24,-88 314.18,-88"/><polygon fill="#000" stroke="#000" points="314.33 -91.5 324.33 -88 314.33 -84.5 314.33 -91.5"/><text x="190" y="-91.8" font-family="Times,serif" font-size="14" text-anchor="middle">ref</text></g><g id="node16" class="node"><title>REF_LGD</title><polygon fill="#fff" stroke="transparent" points="847.5 -108 538.5 -108 538.5 -70 847.5 -70 847.5 -108"/><text x="693" y="-92.8" font-family="Times,serif" font-size="14" text-anchor="middle">: B references file A (i.e. B depends on A)</text><text x="693" y="-77.8" font-family="Times,serif" font-size="14" text-anchor="middle">&apos;ref&apos; may refer to the keyword use in B.</text></g><g id="edge9" class="edge"><title>D-&gt;REF_LGD</title></g><g id="node17" class="node"><title>E</title><polygon fill="#fff" stroke="#000" points="106.5 -52 58.5 -52 58.5 -16 112.5 -16 112.5 -46 106.5 -52"/><polyline fill="none" stroke="#000" points="106.5 -52 106.5 -46"/><polyline fill="none" stroke="#000" points="112.5 -46 106.5 -46"/><text x="85.5" y="-30.3" font-family="Times,serif" font-size="14" text-anchor="middle">E</text></g><g id="node18" class="node"><title>F</title><polygon fill="#fff" stroke="#000" points="378.5 -52 375.5 -56 354.5 -56 351.5 -52 324.5 -52 324.5 -16 378.5 -16 378.5 -52"/><text x="351.5" y="-30.3" font-family="Times,serif" font-size="14" text-anchor="middle">F</text></g><g id="edge10" class="edge"><title>E-&gt;F</title><path fill="none" stroke="#000" stroke-dasharray="5 2" d="M112.78,-34C160.22,-34 260.24,-34 314.18,-34"/><polygon fill="#000" stroke="#000" points="314.33 -37.5 324.33 -34 314.33 -30.5 314.33 -37.5"/><text x="190" y="-37.8" font-family="Times,serif" font-size="14" text-anchor="middle">pack</text></g><g id="node19" class="node"><title>FOLDER_LGD</title><polygon fill="#fff" stroke="transparent" points="871 -52 515 -52 515 -16 871 -16 871 -52"/><text x="693" y="-30.3" font-family="Times,serif" font-size="14" text-anchor="middle">: Archive F contains file E (i.e. F depends on E).</text></g><g id="edge11" class="edge"><title>F-&gt;FOLDER_LGD</title></g></g></svg>