<svg xmlns="http://www.w3.org/2000/svg" xmlns:xlink="http://www.w3.org/1999/xlink" width="932pt" height="636" viewBox="0 0 932 477"><g id="graph0" class="graph" transform="scale(1 1) rotate(0) translate(4 473)"><title>Legend</title><polygon fill="#fff" stroke="transparent" points="-4 4 -4 -473 928 -473 928 4 -4 4"/><g id="clust1" class="cluster"><title>clusterLegend</title><polygon fill="#fff" stroke="#000" points="8 -8 8 -461 916 -461 916 -8 8 -8"/><text x="462" y="-445.8" font-family="Times,serif" font-size="14" text-anchor="middle">Legend</text></g><g id="node1" class="node"><title>CPP</title><polygon fill="#4169e1" stroke="#000" points="120 -430 54 -430 54 -394 126 -394 126 -424 120 -430"/><polyline fill="none" stroke="#000" points="120 -430 120 -424"/><polyline fill="none" stroke="#000" points="126 -424 120 -424"/><text x="90" y="-408.3" font-family="Times,serif" font-size="14" text-anchor="middle">Foo.cpp</text></g><g id="node2" class="node"><title>CPP_LGD</title><polygon fill="#fff" stroke="transparent" points="443.5 -430 305.5 -430 305.5 -394 443.5 -394 443.5 -430"/><text x="374.5" y="-408.3" font-family="Times,serif" font-size="14" text-anchor="middle">: C++ source file</text></g><g id="edge1" class="edge"><title>CPP-&gt;CPP_LGD</title></g><g id="node3" class="node"><title>LIB</title><polygon fill="#4169e1" stroke="#000" points="121 -376 59 -376 59 -372 55 -372 55 -368 59 -368 59 -348 55 -348 55 -344 59 -344 59 -340 121 -340 121 -376"/><polyline fill="none" stroke="#000" points="59 -372 63 -372 63 -368 59 -368"/><polyline fill="none" stroke="#000" points="59 -348 63 -348 63 -344 59 -344"/><text x="90" y="-354.3" font-family="Times,serif" font-size="14" text-anchor="middle">Foo.so</text></g><g id="node4" class="node"><title>LIB_LGD</title><polygon fill="#fff" stroke="transparent" points="482.5 -376 266.5 -376 266.5 -340 482.5 -340 482.5 -376"/><text x="374.5" y="-354.3" font-family="Times,serif" font-size="14" text-anchor="middle">: Shared library (i.e. binary)</text></g><g id="edge2" class="edge"><title>LIB-&gt;LIB_LGD</title></g><g id="node5" class="node"><title>JAVA</title><polygon fill="#dc143c" stroke="#000" points="122 -322 52 -322 52 -286 128 -286 128 -316 122 -322"/><polyline fill="none" stroke="#000" points="122 -322 122 -316"/><polyline fill="none" stroke="#000" points="128 -316 122 -316"/><text x="90" y="-300.3" font-family="Times,serif" font-size="14" text-anchor="middle">Foo.java</text></g><g id="node6" class="node"><title>JAVA_LGD</title><polygon fill="#fff" stroke="transparent" points="441.5 -322 307.5 -322 307.5 -286 441.5 -286 441.5 -322"/><text x="374.5" y="-300.3" font-family="Times,serif" font-size="14" text-anchor="middle">: Java source file</text></g><g id="edge3" class="edge"><title>JAVA-&gt;JAVA_LGD</title></g><g id="node7" class="node"><title>JNI</title><polygon fill="#dc143c" stroke="#000" points="154 -268 26 -268 26 -264 22 -264 22 -260 26 -260 26 -240 22 -240 22 -236 26 -236 26 -232 154 -232 154 -268"/><polyline fill="none" stroke="#000" points="26 -264 30 -264 30 -260 26 -260"/><polyline fill="none" stroke="#000" points="26 -240 30 -240 30 -236 26 -236"/><text x="90" y="-246.3" font-family="Times,serif" font-size="14" text-anchor="middle">jnijavanative.so</text></g><g id="node8" class="node"><title>JNI_LGD</title><polygon fill="#fff" stroke="transparent" points="500 -268 249 -268 249 -232 500 -232 500 -268"/><text x="374.5" y="-246.3" font-family="Times,serif" font-size="14" text-anchor="middle">: JNI wrapper output (i.e. binary)</text></g><g id="edge4" class="edge"><title>JNI-&gt;JNI_LGD</title></g><g id="node9" class="node"><title>JAR</title><polygon fill="#dc143c" stroke="#000" points="164 -214 161 -218 140 -218 137 -214 16 -214 16 -178 164 -178 164 -214"/><text x="90" y="-192.3" font-family="Times,serif" font-size="14" text-anchor="middle">javanative-java.jar</text></g><g id="node10" class="node"><title>JAR_LGD</title><polygon fill="#fff" stroke="transparent" points="515 -214 234 -214 234 -178 515 -178 515 -214"/><text x="374.5" y="-192.3" font-family="Times,serif" font-size="14" text-anchor="middle">: Maven package file (i.e. jar archive)</text></g><g id="edge5" class="edge"><title>JAR-&gt;JAR_LGD</title></g><g id="node11" class="node"><title>A</title><polygon fill="#fff" stroke="#000" points="111 -160 63 -160 63 -124 117 -124 117 -154 111 -160"/><polyline fill="none" stroke="#000" points="111 -160 111 -154"/><polyline fill="none" stroke="#000" points="117 -154 111 -154"/><text x="90" y="-138.3" font-family="Times,serif" font-size="14" text-anchor="middle">A</text></g><g id="node12" class="node"><title>B</title><polygon fill="#fff" stroke="#000" points="395.5 -160 347.5 -160 347.5 -124 401.5 -124 401.5 -154 395.5 -160"/><polyline fill="none" stroke="#000" points="395.5 -160 395.5 -154"/><polyline fill="none" stroke="#000" points="401.5 -154 395.5 -154"/><text x="374.5" y="-138.3" font-family="Times,serif" font-size="14" text-anchor="middle">B</text></g><g id="edge6" class="edge"><title>A-&gt;B</title><path fill="none" stroke="#000" stroke-width="2" d="M117.07,-142C167.73,-142 279.57,-142 337.36,-142"/><polygon fill="#000" stroke="#000" stroke-width="2" points="337.49 -145.5 347.49 -142 337.49 -138.5 337.49 -145.5"/><text x="199" y="-145.8" font-family="Times,serif" font-size="14" text-anchor="middle">cmd</text></g><g id="node13" class="node"><title>CMD_LGD</title><polygon fill="#fff" stroke="transparent" points="881 -162 579 -162 579 -126 881 -126 881 -162"/><text x="730" y="-140.3" font-family="Times,serif" font-size="14" text-anchor="middle">: &apos;cmd [...] A&apos; will generate file B from A.</text></g><g id="edge7" class="edge"><title>B-&gt;CMD_LGD</title></g><g id="node14" class="node"><title>C</title><polygon fill="#fff" stroke="#000" points="111 -106 63 -106 63 -70 117 -70 117 -100 111 -106"/><polyline fill="none" stroke="#000" points="111 -106 111 -100"/><polyline fill="none" stroke="#000" points="117 -100 111 -100"/><text x="90" y="-84.3" font-family="Times,serif" font-size="14" text-anchor="middle">A</text></g><g id="node15" class="node"><title>D</title><polygon fill="#fff" stroke="#000" points="395.5 -106 347.5 -106 347.5 -70 401.5 -70 401.5 -100 395.5 -106"/><polyline fill="none" stroke="#000" points="395.5 -106 395.5 -100"/><polyline fill="none" stroke="#000" points="401.5 -100 395.5 -100"/><text x="374.5" y="-84.3" font-family="Times,serif" font-size="14" text-anchor="middle">B</text></g><g id="edge8" class="edge"><title>C-&gt;D</title><path fill="none" stroke="#000" stroke-dasharray="5 2" d="M117.07,-88C167.73,-88 279.57,-88 337.36,-88"/><polygon fill="#000" stroke="#000" points="337.49 -91.5 347.49 -88 337.49 -84.5 337.49 -91.5"/><text x="199" y="-91.8" font-family="Times,serif" font-size="14" text-anchor="middle">ref</text></g><g id="node16" class="node"><title>REF_LGD</title><polygon fill="#fff" stroke="transparent" points="884.5 -108 575.5 -108 575.5 -70 884.5 -70 884.5 -108"/><text x="730" y="-92.8" font-family="Times,serif" font-size="14" text-anchor="middle">: B references file A (i.e. B depends on A)</text><text x="730" y="-77.8" font-family="Times,serif" font-size="14" text-anchor="middle">&apos;ref&apos; may refer to the keyword use in B.</text></g><g id="edge9" class="edge"><title>D-&gt;REF_LGD</title></g><g id="node17" class="node"><title>E</title><polygon fill="#fff" stroke="#000" points="111 -52 63 -52 63 -16 117 -16 117 -46 111 -52"/><polyline fill="none" stroke="#000" points="111 -52 111 -46"/><polyline fill="none" stroke="#000" points="117 -46 111 -46"/><text x="90" y="-30.3" font-family="Times,serif" font-size="14" text-anchor="middle">E</text></g><g id="node18" class="node"><title>F</title><polygon fill="#fff" stroke="#000" points="401.5 -52 398.5 -56 377.5 -56 374.5 -52 347.5 -52 347.5 -16 401.5 -16 401.5 -52"/><text x="374.5" y="-30.3" font-family="Times,serif" font-size="14" text-anchor="middle">F</text></g><g id="edge10" class="edge"><title>E-&gt;F</title><path fill="none" stroke="#000" stroke-dasharray="5 2" d="M117.07,-34C167.73,-34 279.57,-34 337.36,-34"/><polygon fill="#000" stroke="#000" points="337.49 -37.5 347.49 -34 337.49 -30.5 337.49 -37.5"/><text x="199" y="-37.8" font-family="Times,serif" font-size="14" text-anchor="middle">pack</text></g><g id="node19" class="node"><title>FOLDER_LGD</title><polygon fill="#fff" stroke="transparent" points="908 -52 552 -52 552 -16 908 -16 908 -52"/><text x="730" y="-30.3" font-family="Times,serif" font-size="14" text-anchor="middle">: Archive F contains file E (i.e. F depends on E).</text></g><g id="edge11" class="edge"><title>F-&gt;FOLDER_LGD</title></g></g></svg>