<svg xmlns="http://www.w3.org/2000/svg" xmlns:xlink="http://www.w3.org/1999/xlink" width="1978pt" height="1058pt" viewBox="0 0 1978 1058"><g id="graph0" class="graph" transform="scale(1 1) rotate(0) translate(4 1054)"><title>Make</title><polygon fill="#fff" stroke="transparent" points="-4 4 -4 -1054 1974 -1054 1974 4 -4 4"/><g id="clust1" class="cluster"><title>clusterPrerequisite</title><polygon fill="none" stroke="#000" points="8 -695 8 -995 364 -995 364 -695 8 -695"/><text x="186" y="-979.8" font-family="Times,serif" font-size="14" text-anchor="middle">Prerequisite</text></g><g id="clust2" class="cluster"><title>clusterOR</title><polygon fill="none" stroke="#4169e1" points="372 -8 372 -1042 1962 -1042 1962 -8 372 -8"/><text x="1167" y="-1026.8" font-family="Times,serif" font-size="14" text-anchor="middle">OR-Tools (Makefile)</text></g><g id="clust3" class="cluster"><title>clusterDeps</title><polygon fill="none" stroke="gray" points="380 -694 380 -1011 1110 -1011 1110 -694 380 -694"/><text x="745" y="-995.8" font-family="Times,serif" font-size="14" text-anchor="middle">Dependencies</text><text x="745" y="-980.8" font-family="Times,serif" font-size="14" text-anchor="middle">Target: third_party</text></g><g id="clust4" class="cluster"><title>clusterCXX</title><polygon fill="none" stroke="#4169e1" points="380 -452 380 -675 690 -675 690 -452 380 -452"/><text x="535" y="-659.8" font-family="Times,serif" font-size="14" text-anchor="middle">C++</text><text x="535" y="-644.8" font-family="Times,serif" font-size="14" text-anchor="middle">Target: cc</text></g><g id="clust5" class="cluster"><title>clusterCXXTest</title><polygon fill="none" stroke="#000" points="550 -460 550 -550 682 -550 682 -460 550 -460"/><text x="616" y="-534.8" font-family="Times,serif" font-size="14" text-anchor="middle">Examples</text><text x="616" y="-519.8" font-family="Times,serif" font-size="14" text-anchor="middle">Target: test_cc</text></g><g id="clust6" class="cluster"><title>clusterPython</title><polygon fill="none" stroke="gold" points="698 -234 698 -550 1064 -550 1064 -234 698 -234"/><text x="881" y="-534.8" font-family="Times,serif" font-size="14" text-anchor="middle">Python</text><text x="881" y="-519.8" font-family="Times,serif" font-size="14" text-anchor="middle">Target: python</text></g><g id="clust7" class="cluster"><title>clusterPythonTest</title><polygon fill="none" stroke="#000" points="900 -242 900 -332 1056 -332 1056 -242 900 -242"/><text x="978" y="-316.8" font-family="Times,serif" font-size="14" text-anchor="middle">Examples</text><text x="978" y="-301.8" font-family="Times,serif" font-size="14" text-anchor="middle">Target: test_python</text></g><g id="clust8" class="cluster"><title>clusterJava</title><polygon fill="none" stroke="#dc143c" points="1072 -234 1072 -550 1398 -550 1398 -234 1072 -234"/><text x="1235" y="-534.8" font-family="Times,serif" font-size="14" text-anchor="middle">Java</text><text x="1235" y="-519.8" font-family="Times,serif" font-size="14" text-anchor="middle">Target: java</text></g><g id="clust9" class="cluster"><title>clusterJavaTest</title><polygon fill="none" stroke="#000" points="1254 -242 1254 -332 1390 -332 1390 -242 1254 -242"/><text x="1322" y="-316.8" font-family="Times,serif" font-size="14" text-anchor="middle">Examples</text><text x="1322" y="-301.8" font-family="Times,serif" font-size="14" text-anchor="middle">Target: test_java</text></g><g id="clust10" class="cluster"><title>clusterNet</title><polygon fill="none" stroke="#228b22" points="1406 -16 1406 -550 1954 -550 1954 -16 1406 -16"/><text x="1680" y="-534.8" font-family="Times,serif" font-size="14" text-anchor="middle">.Net</text><text x="1680" y="-519.8" font-family="Times,serif" font-size="14" text-anchor="middle">Target: dotnet</text></g><g id="clust11" class="cluster"><title>clusterNetTest</title><polygon fill="none" stroke="#000" points="1704 -24 1704 -114 1946 -114 1946 -24 1704 -24"/><text x="1825" y="-98.8" font-family="Times,serif" font-size="14" text-anchor="middle">Examples</text><text x="1825" y="-83.8" font-family="Times,serif" font-size="14" text-anchor="middle">Target: test_dotnet</text></g><g id="node1" class="node"><title>M</title><polygon fill="#4169e1" stroke="#000" points="237 -964 185 -964 181 -960 181 -928 233 -928 237 -932 237 -964"/><polyline fill="none" stroke="#000" points="233 -960 181 -960"/><polyline fill="none" stroke="#000" points="233 -960 233 -928"/><polyline fill="none" stroke="#000" points="233 -960 237 -964"/><text x="209" y="-942.3" font-family="Times,serif" font-size="14" text-anchor="middle">Make</text></g><g id="node3" class="node"><title>SWIG</title><polygon fill="#d2691e" stroke="#000" points="239.5 -890 182.5 -890 178.5 -886 178.5 -852 235.5 -852 239.5 -856 239.5 -890"/><polyline fill="none" stroke="#000" points="235.5 -886 178.5 -886"/><polyline fill="none" stroke="#000" points="235.5 -886 235.5 -852"/><polyline fill="none" stroke="#000" points="235.5 -886 239.5 -890"/><text x="209" y="-874.8" font-family="Times,serif" font-size="14" text-anchor="middle">Swig</text><text x="209" y="-859.8" font-family="Times,serif" font-size="14" text-anchor="middle">(Unix)</text></g><g id="edge1" class="edge"><title>M-&gt;SWIG</title></g><g id="node2" class="node"><title>CM</title><polygon fill="#4169e1" stroke="#000" points="123 -964 61 -964 57 -960 57 -928 119 -928 123 -932 123 -964"/><polyline fill="none" stroke="#000" points="119 -960 57 -960"/><polyline fill="none" stroke="#000" points="119 -960 119 -928"/><polyline fill="none" stroke="#000" points="119 -960 123 -964"/><text x="90" y="-942.3" font-family="Times,serif" font-size="14" text-anchor="middle">CMake</text></g><g id="node4" class="node"><title>PY</title><polygon fill="gold" stroke="#000" points="355.5 -815 292.5 -815 288.5 -811 288.5 -777 351.5 -777 355.5 -781 355.5 -815"/><polyline fill="none" stroke="#000" points="351.5 -811 288.5 -811"/><polyline fill="none" stroke="#000" points="351.5 -811 351.5 -777"/><polyline fill="none" stroke="#000" points="351.5 -811 355.5 -815"/><text x="322" y="-799.8" font-family="Times,serif" font-size="14" text-anchor="middle">Python</text><text x="322" y="-784.8" font-family="Times,serif" font-size="14" text-anchor="middle">(3.6+)</text></g><g id="edge2" class="edge"><title>SWIG-&gt;PY</title></g><g id="node5" class="node"><title>JV</title><polygon fill="#dc143c" stroke="#000" points="130 -815 20 -815 16 -811 16 -777 126 -777 130 -781 130 -815"/><polyline fill="none" stroke="#000" points="126 -811 16 -811"/><polyline fill="none" stroke="#000" points="126 -811 126 -777"/><polyline fill="none" stroke="#000" points="126 -811 130 -815"/><text x="73" y="-799.8" font-family="Times,serif" font-size="14" text-anchor="middle">Java</text><text x="73" y="-784.8" font-family="Times,serif" font-size="14" text-anchor="middle">(openJDK 8+)</text></g><g id="edge3" class="edge"><title>SWIG-&gt;JV</title></g><g id="node6" class="node"><title>NET</title><polygon fill="#228b22" stroke="#000" points="270 -815 152 -815 148 -811 148 -777 266 -777 270 -781 270 -815"/><polyline fill="none" stroke="#000" points="266 -811 148 -811"/><polyline fill="none" stroke="#000" points="266 -811 266 -777"/><polyline fill="none" stroke="#000" points="266 -811 270 -815"/><text x="209" y="-799.8" font-family="Times,serif" font-size="14" text-anchor="middle">.Net Core SDK</text><text x="209" y="-784.8" font-family="Times,serif" font-size="14" text-anchor="middle">(3.1)</text></g><g id="edge4" class="edge"><title>SWIG-&gt;NET</title></g><g id="node7" class="node"><title>FS</title><polygon fill="#228b22" stroke="#000" points="246 -739 176 -739 172 -735 172 -703 242 -703 246 -707 246 -739"/><polyline fill="none" stroke="#000" points="242 -735 172 -735"/><polyline fill="none" stroke="#000" points="242 -735 242 -703"/><polyline fill="none" stroke="#000" points="242 -735 246 -739"/><text x="209" y="-717.3" font-family="Times,serif" font-size="14" text-anchor="middle">.Net F#</text></g><g id="edge5" class="edge"><title>NET-&gt;FS</title></g><g id="node8" class="node"><title>Z</title><path fill="#4169e1" stroke="#4169e1" d="M556,-965C556,-965 514,-965 514,-965 508,-965 502,-959 502,-953 502,-953 502,-939 502,-939 502,-933 508,-927 514,-927 514,-927 556,-927 556,-927 562,-927 568,-933 568,-939 568,-939 568,-953 568,-953 568,-959 562,-965 556,-965"/><text x="535" y="-949.8" font-family="Times,serif" font-size="14" text-anchor="middle">Zlib</text><text x="535" y="-934.8" font-family="Times,serif" font-size="14" text-anchor="middle">(Make)</text></g><g id="node10" class="node"><title>PB</title><path fill="#4169e1" stroke="#4169e1" d="M656.5,-890C656.5,-890 601.5,-890 601.5,-890 595.5,-890 589.5,-884 589.5,-878 589.5,-878 589.5,-864 589.5,-864 589.5,-858 595.5,-852 601.5,-852 601.5,-852 656.5,-852 656.5,-852 662.5,-852 668.5,-858 668.5,-864 668.5,-864 668.5,-878 668.5,-878 668.5,-884 662.5,-890 656.5,-890"/><text x="629" y="-874.8" font-family="Times,serif" font-size="14" text-anchor="middle">Protobuf</text><text x="629" y="-859.8" font-family="Times,serif" font-size="14" text-anchor="middle">(CMake)</text></g><g id="edge6" class="edge"><title>Z-&gt;PB</title><path fill="none" stroke="#000" d="M558.24,-926.96C570.1,-917.74 584.7,-906.4 597.56,-896.42"/><polygon fill="#000" stroke="#000" points="599.95 -898.99 605.71 -890.09 595.66 -893.46 599.95 -898.99"/></g><g id="node22" class="node"><title>OR_CC</title><path fill="#4169e1" stroke="#000" d="M545.5,-629C545.5,-629 482.5,-629 482.5,-629 476.5,-629 470.5,-623 470.5,-617 470.5,-617 470.5,-603 470.5,-603 470.5,-597 476.5,-591 482.5,-591 482.5,-591 545.5,-591 545.5,-591 551.5,-591 557.5,-597 557.5,-603 557.5,-603 557.5,-617 557.5,-617 557.5,-623 551.5,-629 545.5,-629"/><text x="514" y="-613.8" font-family="Times,serif" font-size="14" text-anchor="middle">C++</text><text x="514" y="-598.8" font-family="Times,serif" font-size="14" text-anchor="middle">Target: cc</text></g><g id="edge18" class="edge"><title>Z-&gt;OR_CC</title><path fill="none" stroke="#000" d="M568.4,-930.49C571.3,-929.29 574.2,-928.11 577,-927 627.8,-906.83 687,-926.66 687,-872 687,-872 687,-872 687,-720 687,-675.52 636.04,-697.56 594,-683 582.17,-678.9 577.44,-681.9 567,-675 552.52,-665.44 539.95,-650.74 530.69,-637.84"/><polygon fill="#000" stroke="#000" points="533.37 -635.55 524.83 -629.28 527.59 -639.51 533.37 -635.55"/></g><g id="node9" class="node"><title>ABSL</title><path fill="#4169e1" stroke="#4169e1" d="M664,-965C664,-965 598,-965 598,-965 592,-965 586,-959 586,-953 586,-953 586,-939 586,-939 586,-933 592,-927 598,-927 598,-927 664,-927 664,-927 670,-927 676,-933 676,-939 676,-939 676,-953 676,-953 676,-959 670,-965 664,-965"/><text x="631" y="-949.8" font-family="Times,serif" font-size="14" text-anchor="middle">Abseil-cpp</text><text x="631" y="-934.8" font-family="Times,serif" font-size="14" text-anchor="middle">(CMake)</text></g><g id="edge7" class="edge"><title>ABSL-&gt;PB</title><path fill="none" stroke="#000" d="M630.51,-926.96C630.28,-918.88 630.02,-909.18 629.77,-900.18"/><polygon fill="#000" stroke="#000" points="633.27 -899.99 629.5 -890.09 626.27 -900.18 633.27 -899.99"/></g><g id="edge19" class="edge"><title>ABSL-&gt;OR_CC</title><path fill="none" stroke="#000" d="M667.66,-926.93C687.1,-914.52 707,-895.97 707,-872 707,-872 707,-872 707,-720 707,-706.66 703.02,-701.52 692,-694 668.8,-678.15 591.45,-688.84 567,-675 551.45,-666.2 538.54,-650.93 529.35,-637.52"/><polygon fill="#000" stroke="#000" points="532.24 -635.54 523.87 -629.05 526.37 -639.35 532.24 -635.54"/></g><g id="edge20" class="edge"><title>PB-&gt;OR_CC</title><path fill="none" stroke="#000" d="M631.98,-851.92C636.61,-817.47 641.63,-741.62 606,-694 594.45,-678.56 582.16,-686.92 567,-675 553.55,-664.42 541.18,-649.91 531.78,-637.37"/><polygon fill="#000" stroke="#000" points="534.48 -635.13 525.78 -629.08 528.81 -639.23 534.48 -635.13"/></g><g id="node11" class="node"><title>CU</title><path fill="#4169e1" stroke="#4169e1" d="M471.5,-965C471.5,-965 400.5,-965 400.5,-965 394.5,-965 388.5,-959 388.5,-953 388.5,-953 388.5,-939 388.5,-939 388.5,-933 394.5,-927 400.5,-927 400.5,-927 471.5,-927 471.5,-927 477.5,-927 483.5,-933 483.5,-939 483.5,-939 483.5,-953 483.5,-953 483.5,-959 477.5,-965 471.5,-965"/><text x="436" y="-949.8" font-family="Times,serif" font-size="14" text-anchor="middle">CoinUtils</text><text x="436" y="-934.8" font-family="Times,serif" font-size="14" text-anchor="middle">(Autotools)</text></g><g id="node12" class="node"><title>OSI</title><path fill="#4169e1" stroke="#4169e1" d="M539.5,-890C539.5,-890 468.5,-890 468.5,-890 462.5,-890 456.5,-884 456.5,-878 456.5,-878 456.5,-864 456.5,-864 456.5,-858 462.5,-852 468.5,-852 468.5,-852 539.5,-852 539.5,-852 545.5,-852 551.5,-858 551.5,-864 551.5,-864 551.5,-878 551.5,-878 551.5,-884 545.5,-890 539.5,-890"/><text x="504" y="-874.8" font-family="Times,serif" font-size="14" text-anchor="middle">Osi</text><text x="504" y="-859.8" font-family="Times,serif" font-size="14" text-anchor="middle">(Autotools)</text></g><g id="edge8" class="edge"><title>CU-&gt;OSI</title><path fill="none" stroke="#000" d="M452.81,-926.96C461.06,-918.09 471.15,-907.26 480.19,-897.56"/><polygon fill="#000" stroke="#000" points="482.89 -899.79 487.15 -890.09 477.77 -895.02 482.89 -899.79"/></g><g id="node13" class="node"><title>CLP</title><path fill="#4169e1" stroke="#4169e1" d="M471.5,-815C471.5,-815 400.5,-815 400.5,-815 394.5,-815 388.5,-809 388.5,-803 388.5,-803 388.5,-789 388.5,-789 388.5,-783 394.5,-777 400.5,-777 400.5,-777 471.5,-777 471.5,-777 477.5,-777 483.5,-783 483.5,-789 483.5,-789 483.5,-803 483.5,-803 483.5,-809 477.5,-815 471.5,-815"/><text x="436" y="-799.8" font-family="Times,serif" font-size="14" text-anchor="middle">Clp</text><text x="436" y="-784.8" font-family="Times,serif" font-size="14" text-anchor="middle">(Autotools)</text></g><g id="edge9" class="edge"><title>CU-&gt;CLP</title><path fill="none" stroke="#000" d="M433.57,-926.72C432.93,-921.05 432.32,-914.78 432,-909 430.13,-875.27 430.13,-866.73 432,-833 432.13,-830.56 432.32,-828.04 432.54,-825.51"/><polygon fill="#000" stroke="#000" points="436.05 -825.58 433.57 -815.28 429.08 -824.88 436.05 -825.58"/></g><g id="node14" class="node"><title>CGL</title><path fill="#4169e1" stroke="#4169e1" d="M584.5,-815C584.5,-815 513.5,-815 513.5,-815 507.5,-815 501.5,-809 501.5,-803 501.5,-803 501.5,-789 501.5,-789 501.5,-783 507.5,-777 513.5,-777 513.5,-777 584.5,-777 584.5,-777 590.5,-777 596.5,-783 596.5,-789 596.5,-789 596.5,-803 596.5,-803 596.5,-809 590.5,-815 584.5,-815"/><text x="549" y="-799.8" font-family="Times,serif" font-size="14" text-anchor="middle">Cgl</text><text x="549" y="-784.8" font-family="Times,serif" font-size="14" text-anchor="middle">(Autotools)</text></g><g id="edge11" class="edge"><title>CU-&gt;CGL</title><path fill="none" stroke="#000" d="M433.75,-926.87C432.22,-906.78 432.74,-874.3 448,-852 458.7,-836.36 475.36,-824.76 492.07,-816.35"/><polygon fill="#000" stroke="#000" points="493.77 -819.42 501.33 -812 490.79 -813.08 493.77 -819.42"/></g><g id="node15" class="node"><title>CBC</title><path fill="#4169e1" stroke="#4169e1" d="M584.5,-740C584.5,-740 513.5,-740 513.5,-740 507.5,-740 501.5,-734 501.5,-728 501.5,-728 501.5,-714 501.5,-714 501.5,-708 507.5,-702 513.5,-702 513.5,-702 584.5,-702 584.5,-702 590.5,-702 596.5,-708 596.5,-714 596.5,-714 596.5,-728 596.5,-728 596.5,-734 590.5,-740 584.5,-740"/><text x="549" y="-724.8" font-family="Times,serif" font-size="14" text-anchor="middle">Cbc</text><text x="549" y="-709.8" font-family="Times,serif" font-size="14" text-anchor="middle">(Autotools)</text></g><g id="edge13" class="edge"><title>CU-&gt;CBC</title><path fill="none" stroke="#000" d="M483.56,-927.83C513.65,-916.27 549.03,-901.16 561,-890 574.96,-876.98 570.24,-867.76 581,-852 593.25,-834.04 605.41,-835.37 613,-815 622.1,-790.55 617.55,-776.34 599,-758 594.86,-753.9 590.22,-749.92 585.48,-746.19"/><polygon fill="#000" stroke="#000" points="587.57 -743.38 577.47 -740.17 583.36 -748.98 587.57 -743.38"/></g><g id="edge10" class="edge"><title>OSI-&gt;CLP</title><path fill="none" stroke="#000" d="M487.19,-851.96C478.94,-843.09 468.85,-832.26 459.81,-822.56"/><polygon fill="#000" stroke="#000" points="462.23 -820.02 452.85 -815.09 457.11 -824.79 462.23 -820.02"/></g><g id="edge12" class="edge"><title>OSI-&gt;CGL</title><path fill="none" stroke="#000" d="M515.12,-851.96C520.37,-843.44 526.74,-833.12 532.53,-823.72"/><polygon fill="#000" stroke="#000" points="535.58 -825.44 537.85 -815.09 529.62 -821.77 535.58 -825.44"/></g><g id="edge14" class="edge"><title>OSI-&gt;CBC</title><path fill="none" stroke="#000" d="M551.68,-856.51C572.16,-848.1 594.09,-834.95 606,-815 614.66,-800.5 612.6,-792.54 606,-777 601.13,-765.53 592.56,-755.29 583.53,-746.84"/><polygon fill="#000" stroke="#000" points="585.74 -744.12 575.9 -740.18 581.13 -749.4 585.74 -744.12"/></g><g id="edge15" class="edge"><title>CLP-&gt;CBC</title><path fill="none" stroke="#000" d="M463.93,-776.96C478.6,-767.48 496.76,-755.75 512.52,-745.57"/><polygon fill="#000" stroke="#000" points="514.5 -748.46 521 -740.09 510.7 -742.58 514.5 -748.46"/></g><g id="edge21" class="edge"><title>CLP-&gt;OR_CC</title><path fill="none" stroke="#000" d="M443.76,-776.68C457.49,-744.31 486.11,-676.8 502.26,-638.7"/><polygon fill="#000" stroke="#000" points="505.59 -639.81 506.27 -629.24 499.14 -637.08 505.59 -639.81"/></g><g id="edge16" class="edge"><title>CGL-&gt;CBC</title><path fill="none" stroke="#000" d="M549,-776.96C549,-768.88 549,-759.18 549,-750.18"/><polygon fill="#000" stroke="#000" points="552.5 -750.09 549 -740.09 545.5 -750.09 552.5 -750.09"/></g><g id="edge22" class="edge"><title>CBC-&gt;OR_CC</title><path fill="none" stroke="#000" d="M543.06,-701.51C537.55,-684.34 529.26,-658.53 522.95,-638.86"/><polygon fill="#000" stroke="#000" points="526.24 -637.67 519.85 -629.22 519.57 -639.81 526.24 -637.67"/></g><g id="node16" class="node"><title>SWIG_WIN</title><path fill="#4169e1" stroke="#d2691e" d="M850,-965C850,-965 782,-965 782,-965 776,-965 770,-959 770,-953 770,-953 770,-939 770,-939 770,-933 776,-927 782,-927 782,-927 850,-927 850,-927 856,-927 862,-933 862,-939 862,-939 862,-953 862,-953 862,-959 856,-965 850,-965"/><text x="816" y="-949.8" font-family="Times,serif" font-size="14" text-anchor="middle">Swigwin</text><text x="816" y="-934.8" font-family="Times,serif" font-size="14" text-anchor="middle">(Windows)</text></g><g id="node17" class="node"><title>GLPK</title><path fill="none" stroke="gray" stroke-dasharray="5 2" d="M739.5,-964C739.5,-964 706.5,-964 706.5,-964 700.5,-964 694.5,-958 694.5,-952 694.5,-952 694.5,-940 694.5,-940 694.5,-934 700.5,-928 706.5,-928 706.5,-928 739.5,-928 739.5,-928 745.5,-928 751.5,-934 751.5,-940 751.5,-940 751.5,-952 751.5,-952 751.5,-958 745.5,-964 739.5,-964"/><text x="723" y="-942.3" font-family="Times,serif" font-size="14" text-anchor="middle">GLPK</text></g><g id="edge23" class="edge"><title>GLPK-&gt;OR_CC</title><path fill="none" stroke="#000" d="M724.47,-927.9C725.61,-913.12 727,-891.17 727,-872 727,-872 727,-872 727,-720 727,-640.16 616.12,-702.13 567,-675 551.36,-666.36 538.45,-651.1 529.28,-637.64"/><polygon fill="#000" stroke="#000" points="532.17 -635.66 523.81 -629.15 526.28 -639.45 532.17 -635.66"/></g><g id="node18" class="node"><title>SCIP</title><path fill="none" stroke="gray" stroke-dasharray="5 2" d="M922,-964C922,-964 892,-964 892,-964 886,-964 880,-958 880,-952 880,-952 880,-940 880,-940 880,-934 886,-928 892,-928 892,-928 922,-928 922,-928 928,-928 934,-934 934,-940 934,-940 934,-952 934,-952 934,-958 928,-964 922,-964"/><text x="907" y="-942.3" font-family="Times,serif" font-size="14" text-anchor="middle">SCIP</text></g><g id="edge24" class="edge"><title>SCIP-&gt;OR_CC</title><path fill="none" stroke="#000" d="M879.96,-929.34C848.85,-910.87 802,-881.49 802,-872 802,-872 802,-872 802,-720 802,-677.98 755.93,-692.5 715,-683 682.92,-675.55 596.42,-689.82 567,-675 550.93,-666.91 537.95,-651.52 528.85,-637.86"/><polygon fill="#000" stroke="#000" points="531.71 -635.84 523.44 -629.22 525.78 -639.55 531.71 -635.84"/></g><g id="node19" class="node"><title>CPLEX</title><path fill="none" stroke="gray" stroke-dasharray="5 2" d="M1006,-964C1006,-964 964,-964 964,-964 958,-964 952,-958 952,-952 952,-952 952,-940 952,-940 952,-934 958,-928 964,-928 964,-928 1006,-928 1006,-928 1012,-928 1018,-934 1018,-940 1018,-940 1018,-952 1018,-952 1018,-958 1012,-964 1006,-964"/><text x="985" y="-942.3" font-family="Times,serif" font-size="14" text-anchor="middle">CPLEX</text></g><g id="edge25" class="edge"><title>CPLEX-&gt;OR_CC</title><path fill="none" stroke="#000" d="M962.41,-927.78C947.61,-914.4 931,-894.39 931,-872 931,-872 931,-872 931,-720 931,-663.69 862.53,-703.36 807,-694 769,-687.6 759.38,-686.45 721,-683 703.93,-681.47 582.31,-682.69 567,-675 550.93,-666.93 537.94,-651.53 528.84,-637.87"/><polygon fill="#000" stroke="#000" points="531.71 -635.85 523.43 -629.23 525.77 -639.56 531.71 -635.85"/></g><g id="node20" class="node"><title>GUROBI</title><path fill="none" stroke="gray" stroke-dasharray="5 2" d="M1089.5,-964C1089.5,-964 1048.5,-964 1048.5,-964 1042.5,-964 1036.5,-958 1036.5,-952 1036.5,-952 1036.5,-940 1036.5,-940 1036.5,-934 1042.5,-928 1048.5,-928 1048.5,-928 1089.5,-928 1089.5,-928 1095.5,-928 1101.5,-934 1101.5,-940 1101.5,-940 1101.5,-952 1101.5,-952 1101.5,-958 1095.5,-964 1089.5,-964"/><text x="1069" y="-942.3" font-family="Times,serif" font-size="14" text-anchor="middle">Gurobi</text></g><g id="edge26" class="edge"><title>GUROBI-&gt;OR_CC</title><path fill="none" stroke="#000" d="M1043.98,-927.95C1027.9,-914.79 1010,-894.98 1010,-872 1010,-872 1010,-872 1010,-720 1010,-685.14 970.19,-700.78 936,-694 846.5,-676.25 822.12,-687.67 731,-683 712.78,-682.07 583.32,-683.16 567,-675 550.91,-666.95 537.92,-651.56 528.83,-637.89"/><polygon fill="#000" stroke="#000" points="531.7 -635.87 523.42 -629.25 525.76 -639.58 531.7 -635.87"/></g><g id="node21" class="node"><title>OR_SRC</title><polygon fill="#4169e1" stroke="#000" points="682 -629 679 -633 658 -633 655 -629 576 -629 576 -591 682 -591 682 -629"/><text x="629" y="-613.8" font-family="Times,serif" font-size="14" text-anchor="middle">OR-Tools src</text><text x="629" y="-598.8" font-family="Times,serif" font-size="14" text-anchor="middle">ortools/...</text></g><g id="node23" class="node"><title>PKG_CC</title><polygon fill="#4169e1" stroke="#000" points="540 -505 392 -505 388 -501 388 -467 536 -467 540 -471 540 -505"/><polyline fill="none" stroke="#000" points="536 -501 388 -501"/><polyline fill="none" stroke="#000" points="536 -501 536 -467"/><polyline fill="none" stroke="#000" points="536 -501 540 -505"/><text x="464" y="-489.8" font-family="Times,serif" font-size="14" text-anchor="middle">.tar.gz/.zip Archive</text><text x="464" y="-474.8" font-family="Times,serif" font-size="14" text-anchor="middle">Target: package_cc</text></g><g id="edge27" class="edge"><title>OR_CC-&gt;PKG_CC</title><path fill="none" stroke="#696969" stroke-dasharray="1 5" d="M506.62,-591C498.35,-570.82 484.84,-537.86 475.25,-514.45"/><polygon fill="#696969" stroke="#696969" points="478.44 -513 471.41 -505.08 471.96 -515.66 478.44 -513"/><text x="514" y="-561.8" font-family="Times,serif" font-size="14" text-anchor="middle">WIP</text></g><g id="node24" class="node"><title>EX_CC</title><polygon fill="#4169e1" stroke="#000" points="668 -504 558 -504 558 -468 674 -468 674 -498 668 -504"/><polyline fill="none" stroke="#000" points="668 -504 668 -498"/><polyline fill="none" stroke="#000" points="674 -498 668 -498"/><text x="616" y="-482.3" font-family="Times,serif" font-size="14" text-anchor="middle">C++ Samples</text></g><g id="edge17" class="edge"><title>OR_CC-&gt;EX_CC</title><path fill="none" stroke="#000" d="M529.05,-591C546.5,-570.13 575.37,-535.59 595.02,-512.1"/><polygon fill="#000" stroke="#000" points="597.82 -514.2 601.55 -504.29 592.45 -509.71 597.82 -514.2"/></g><g id="node25" class="node"><title>OR_WPY</title><polygon fill="gold" stroke="#000" points="878 -504 706 -504 706 -468 884 -468 884 -498 878 -504"/><polyline fill="none" stroke="#000" points="878 -504 878 -498"/><polyline fill="none" stroke="#000" points="884 -498 878 -498"/><text x="795" y="-482.3" font-family="Times,serif" font-size="14" text-anchor="middle">C++ Python wrappers</text></g><g id="edge29" class="edge"><title>OR_CC-&gt;OR_WPY</title><path fill="none" stroke="#d2691e" d="M557.72,-594.12C607.66,-577.1 682.94,-551.39 686,-550 711.76,-538.27 739.35,-522.29 760.33,-509.35"/><polygon fill="#d2691e" stroke="#d2691e" points="762.25 -512.28 768.89 -504.02 758.55 -506.34 762.25 -512.28"/><text x="679" y="-561.8" font-family="Times,serif" font-size="14" text-anchor="middle">swig</text></g><g id="node26" class="node"><title>OR_PY</title><polygon fill="gold" stroke="#000" points="928 -411 812 -411 812 -373 934 -373 934 -405 928 -411"/><polyline fill="none" stroke="#000" points="928 -411 928 -405"/><polyline fill="none" stroke="#000" points="934 -405 928 -405"/><text x="873" y="-395.8" font-family="Times,serif" font-size="14" text-anchor="middle">Python files</text><text x="873" y="-380.8" font-family="Times,serif" font-size="14" text-anchor="middle">Target: python</text></g><g id="edge30" class="edge"><title>OR_CC-&gt;OR_PY</title><path fill="none" stroke="#d2691e" d="M557.76,-593.38C560.87,-592.5 563.97,-591.7 567,-591 638.15,-574.62 844.44,-604.53 893,-550 928.77,-509.84 908.04,-480.92 894,-429 893.2,-426.02 892.08,-423.04 890.77,-420.13"/><polygon fill="#d2691e" stroke="#d2691e" points="893.85 -418.46 886.11 -411.22 887.64 -421.71 893.85 -418.46"/><text x="929" y="-482.3" font-family="Times,serif" font-size="14" text-anchor="middle">swig</text></g><g id="node29" class="node"><title>OR_WJV</title><polygon fill="#dc143c" stroke="#000" points="1232 -504 1080 -504 1080 -468 1238 -468 1238 -498 1232 -504"/><polyline fill="none" stroke="#000" points="1232 -504 1232 -498"/><polyline fill="none" stroke="#000" points="1238 -498 1232 -498"/><text x="1159" y="-482.3" font-family="Times,serif" font-size="14" text-anchor="middle">C++ Java wrappers</text></g><g id="edge34" class="edge"><title>OR_CC-&gt;OR_WJV</title><path fill="none" stroke="#d2691e" d="M557.71,-593.11C560.83,-592.3 563.95,-591.58 567,-591 786.44,-549.07 860.73,-633.39 1068,-550 1091.44,-540.57 1114.81,-524.21 1131.99,-510.52"/><polygon fill="#d2691e" stroke="#d2691e" points="1134.37 -513.1 1139.91 -504.06 1129.95 -507.67 1134.37 -513.1"/><text x="1060" y="-561.8" font-family="Times,serif" font-size="14" text-anchor="middle">swig</text></g><g id="node30" class="node"><title>OR_JV</title><polygon fill="#dc143c" stroke="#000" points="1271.5 -411 1176.5 -411 1176.5 -373 1277.5 -373 1277.5 -405 1271.5 -411"/><polyline fill="none" stroke="#000" points="1271.5 -411 1271.5 -405"/><polyline fill="none" stroke="#000" points="1277.5 -405 1271.5 -405"/><text x="1227" y="-395.8" font-family="Times,serif" font-size="14" text-anchor="middle">Java files</text><text x="1227" y="-380.8" font-family="Times,serif" font-size="14" text-anchor="middle">Target: java</text></g><g id="edge35" class="edge"><title>OR_CC-&gt;OR_JV</title><path fill="none" stroke="#d2691e" d="M557.7,-593.06C560.82,-592.26 563.94,-591.56 567,-591 679.42,-570.4 967.13,-582.86 1081,-573 1155.21,-566.58 1198.08,-606.17 1247,-550 1278.34,-514.02 1257.95,-454.6 1241.6,-420.1"/><polygon fill="#d2691e" stroke="#d2691e" points="1244.71 -418.49 1237.14 -411.08 1238.43 -421.59 1244.71 -418.49"/><text x="1280" y="-482.3" font-family="Times,serif" font-size="14" text-anchor="middle">swig</text></g><g id="node33" class="node"><title>OR_WNET</title><polygon fill="#228b22" stroke="#000" points="1641 -504 1489 -504 1489 -468 1647 -468 1647 -498 1641 -504"/><polyline fill="none" stroke="#000" points="1641 -504 1641 -498"/><polyline fill="none" stroke="#000" points="1647 -498 1641 -498"/><text x="1568" y="-482.3" font-family="Times,serif" font-size="14" text-anchor="middle">C++ .Net wrappers</text></g><g id="edge40" class="edge"><title>OR_CC-&gt;OR_WNET</title><path fill="none" stroke="#d2691e" d="M557.69,-593.03C560.81,-592.24 563.94,-591.55 567,-591 722.82,-563.23 1121.6,-589.6 1279,-573 1334.31,-567.17 1348.46,-565.04 1402,-550 1442.52,-538.62 1487.03,-521.46 1519.75,-507.92"/><polygon fill="#d2691e" stroke="#d2691e" points="1521.2 -511.11 1529.08 -504.03 1518.51 -504.65 1521.2 -511.11"/><text x="1388" y="-561.8" font-family="Times,serif" font-size="14" text-anchor="middle">swig</text></g><g id="node34" class="node"><title>OR_NET</title><polygon fill="#228b22" stroke="#000" points="1853.5 -411 1740.5 -411 1740.5 -373 1859.5 -373 1859.5 -405 1853.5 -411"/><polyline fill="none" stroke="#000" points="1853.5 -411 1853.5 -405"/><polyline fill="none" stroke="#000" points="1859.5 -405 1853.5 -405"/><text x="1800" y="-395.8" font-family="Times,serif" font-size="14" text-anchor="middle">.Net files</text><text x="1800" y="-380.8" font-family="Times,serif" font-size="14" text-anchor="middle">Target: dotnet</text></g><g id="edge41" class="edge"><title>OR_CC-&gt;OR_NET</title><path fill="none" stroke="#d2691e" d="M557.69,-593.01C560.81,-592.23 563.94,-591.54 567,-591 751.32,-558.53 1222.15,-583.68 1409,-573 1519.07,-566.71 1555.57,-595.5 1656,-550 1716.1,-522.77 1762.36,-457.26 1784.89,-420.04"/><polygon fill="#d2691e" stroke="#d2691e" points="1788.02 -421.61 1790.1 -411.22 1782 -418.05 1788.02 -421.61"/><text x="1780" y="-482.3" font-family="Times,serif" font-size="14" text-anchor="middle">swig</text></g><g id="edge31" class="edge"><title>OR_WPY-&gt;OR_PY</title><path fill="none" stroke="gold" d="M809.67,-467.7C821.32,-453.95 837.79,-434.53 851.02,-418.93"/><polygon fill="gold" stroke="gold" points="853.8 -421.06 857.59 -411.17 848.46 -416.54 853.8 -421.06"/><text x="865" y="-432.8" font-family="Times,serif" font-size="14" text-anchor="middle">python</text></g><g id="node27" class="node"><title>PKG_PY</title><polygon fill="gold" stroke="#000" points="892.5 -287 709.5 -287 705.5 -283 705.5 -249 888.5 -249 892.5 -253 892.5 -287"/><polyline fill="none" stroke="#000" points="888.5 -283 705.5 -283"/><polyline fill="none" stroke="#000" points="888.5 -283 888.5 -249"/><polyline fill="none" stroke="#000" points="888.5 -283 892.5 -287"/><text x="799" y="-271.8" font-family="Times,serif" font-size="14" text-anchor="middle">Wheel Package</text><text x="799" y="-256.8" font-family="Times,serif" font-size="14" text-anchor="middle">Target: package_python</text></g><g id="edge32" class="edge"><title>OR_PY-&gt;PKG_PY</title><path fill="none" stroke="gold" d="M855.67,-372.64C850.94,-367.18 846.02,-361.04 842,-355 829.71,-336.53 818.59,-314.06 810.74,-296.72"/><polygon fill="gold" stroke="gold" points="813.76 -294.89 806.51 -287.17 807.36 -297.73 813.76 -294.89"/><text x="900" y="-343.8" font-family="Times,serif" font-size="14" text-anchor="middle">python setup.py</text></g><g id="node28" class="node"><title>EX_PY</title><polygon fill="gold" stroke="#000" points="1037 -286 911 -286 911 -250 1043 -250 1043 -280 1037 -286"/><polyline fill="none" stroke="#000" points="1037 -286 1037 -280"/><polyline fill="none" stroke="#000" points="1043 -280 1037 -280"/><text x="977" y="-264.3" font-family="Times,serif" font-size="14" text-anchor="middle">Python Samples</text></g><g id="edge28" class="edge"><title>OR_PY-&gt;EX_PY</title><path fill="none" stroke="gold" d="M934.08,-373.7C943.12,-368.88 951.54,-362.76 958,-355 971.57,-338.69 976.01,-314.79 977.23,-296.32"/><polygon fill="gold" stroke="gold" points="980.74 -296.31 977.62 -286.18 973.74 -296.04 980.74 -296.31"/></g><g id="edge36" class="edge"><title>OR_WJV-&gt;OR_JV</title><path fill="none" stroke="#dc143c" d="M1171.79,-467.7C1181.85,-454.08 1196.04,-434.88 1207.52,-419.36"/><polygon fill="#dc143c" stroke="#dc143c" points="1210.44 -421.29 1213.57 -411.17 1204.81 -417.13 1210.44 -421.29"/><text x="1217.5" y="-432.8" font-family="Times,serif" font-size="14" text-anchor="middle">javac</text></g><g id="node31" class="node"><title>PKG_JV</title><polygon fill="#dc143c" stroke="#000" points="1246.5 -287 1083.5 -287 1079.5 -283 1079.5 -249 1242.5 -249 1246.5 -253 1246.5 -287"/><polyline fill="none" stroke="#000" points="1242.5 -283 1079.5 -283"/><polyline fill="none" stroke="#000" points="1242.5 -283 1242.5 -249"/><polyline fill="none" stroke="#000" points="1242.5 -283 1246.5 -287"/><text x="1163" y="-271.8" font-family="Times,serif" font-size="14" text-anchor="middle">Maven Package</text><text x="1163" y="-256.8" font-family="Times,serif" font-size="14" text-anchor="middle">Target: package_java</text></g><g id="edge37" class="edge"><title>OR_JV-&gt;PKG_JV</title><path fill="none" stroke="#dc143c" stroke-dasharray="1 5" d="M1217.32,-372.69C1214.33,-367.02 1211.02,-360.76 1208,-355 1197.71,-335.42 1186.15,-313.32 1177.32,-296.42"/><polygon fill="#dc143c" stroke="#dc143c" points="1180.2 -294.37 1172.46 -287.13 1173.99 -297.61 1180.2 -294.37"/><text x="1254" y="-343.8" font-family="Times,serif" font-size="14" text-anchor="middle">maven (WIP)</text></g><g id="node32" class="node"><title>EX_JV</title><polygon fill="#dc143c" stroke="#000" points="1370 -286 1264 -286 1264 -250 1376 -250 1376 -280 1370 -286"/><polyline fill="none" stroke="#000" points="1370 -286 1370 -280"/><polyline fill="none" stroke="#000" points="1376 -280 1370 -280"/><text x="1320" y="-264.3" font-family="Times,serif" font-size="14" text-anchor="middle">Java Samples</text></g><g id="edge33" class="edge"><title>OR_JV-&gt;EX_JV</title><path fill="none" stroke="#dc143c" d="M1277.62,-373.45C1286.08,-368.6 1294.03,-362.53 1300,-355 1313.22,-338.33 1317.98,-314.47 1319.58,-296.1"/><polygon fill="#dc143c" stroke="#dc143c" points="1323.07 -296.22 1320.19 -286.02 1316.09 -295.79 1323.07 -296.22"/></g><g id="edge42" class="edge"><title>OR_WNET-&gt;OR_NET</title><path fill="none" stroke="#228b22" d="M1617.63,-467.91C1637.72,-460.8 1661.07,-452.28 1682,-444 1704.68,-435.03 1729.49,-424.43 1750.49,-415.22"/><polygon fill="#228b22" stroke="#228b22" points="1752.11 -418.33 1759.85 -411.1 1749.28 -411.93 1752.11 -418.33"/><text x="1740.5" y="-432.8" font-family="Times,serif" font-size="14" text-anchor="middle">dotnet</text></g><g id="node36" class="node"><title>PKG_NET_RT</title><polygon fill="#228b22" stroke="#000" points="1722.5 -411 1417.5 -411 1413.5 -407 1413.5 -373 1718.5 -373 1722.5 -377 1722.5 -411"/><polyline fill="none" stroke="#000" points="1718.5 -407 1413.5 -407"/><polyline fill="none" stroke="#000" points="1718.5 -407 1718.5 -373"/><polyline fill="none" stroke="#000" points="1718.5 -407 1722.5 -411"/><text x="1568" y="-395.8" font-family="Times,serif" font-size="14" text-anchor="middle">Nuget Google.OrTools.runtime.rid.nupkg</text><text x="1568" y="-380.8" font-family="Times,serif" font-size="14" text-anchor="middle">Target: package_dotnet</text></g><g id="edge45" class="edge"><title>OR_WNET-&gt;PKG_NET_RT</title><path fill="none" stroke="#228b22" d="M1568,-467.7C1568,-454.71 1568,-436.65 1568,-421.54"/><polygon fill="#228b22" stroke="#228b22" points="1571.5 -421.17 1568 -411.17 1564.5 -421.17 1571.5 -421.17"/><text x="1623" y="-432.8" font-family="Times,serif" font-size="14" text-anchor="middle">dotnet package</text></g><g id="node35" class="node"><title>OR_FS</title><polygon fill="#228b22" stroke="#000" points="1754 -193 1642 -193 1642 -155 1760 -155 1760 -187 1754 -193"/><polyline fill="none" stroke="#000" points="1754 -193 1754 -187"/><polyline fill="none" stroke="#000" points="1760 -187 1754 -187"/><text x="1701" y="-177.8" font-family="Times,serif" font-size="14" text-anchor="middle">F# files</text><text x="1701" y="-162.8" font-family="Times,serif" font-size="14" text-anchor="middle">Target: fsharp</text></g><g id="edge43" class="edge"><title>OR_NET-&gt;OR_FS</title><path fill="none" stroke="#228b22" d="M1801.01,-372.57C1801.85,-341.62 1799.79,-278.24 1773,-234 1764.84,-220.52 1752.45,-208.75 1740.24,-199.34"/><polygon fill="#228b22" stroke="#228b22" points="1742 -196.3 1731.87 -193.22 1737.87 -201.95 1742 -196.3"/><text x="1822.5" y="-264.3" font-family="Times,serif" font-size="14" text-anchor="middle">dotnet</text></g><g id="node37" class="node"><title>PKG_NET</title><polygon fill="#228b22" stroke="#000" points="1763.5 -287 1544.5 -287 1540.5 -283 1540.5 -249 1759.5 -249 1763.5 -253 1763.5 -287"/><polyline fill="none" stroke="#000" points="1759.5 -283 1540.5 -283"/><polyline fill="none" stroke="#000" points="1759.5 -283 1759.5 -249"/><polyline fill="none" stroke="#000" points="1759.5 -283 1763.5 -287"/><text x="1652" y="-271.8" font-family="Times,serif" font-size="14" text-anchor="middle">Nuget Google.OrTools.nupkg</text><text x="1652" y="-256.8" font-family="Times,serif" font-size="14" text-anchor="middle">Target: package_dotnet</text></g><g id="edge47" class="edge"><title>OR_NET-&gt;PKG_NET</title><path fill="none" stroke="#228b22" d="M1740.34,-374.76C1714.71,-367.34 1689.54,-359.26 1685,-355 1668.77,-339.76 1660.43,-315.66 1656.2,-296.85"/><polygon fill="#228b22" stroke="#228b22" points="1659.63 -296.15 1654.25 -287.03 1652.77 -297.52 1659.63 -296.15"/><text x="1740" y="-343.8" font-family="Times,serif" font-size="14" text-anchor="middle">dotnet package</text></g><g id="node39" class="node"><title>EX_NET</title><polygon fill="#228b22" stroke="#000" points="1932 -68 1834 -68 1834 -32 1938 -32 1938 -62 1932 -68"/><polyline fill="none" stroke="#000" points="1932 -68 1932 -62"/><polyline fill="none" stroke="#000" points="1938 -62 1932 -62"/><text x="1886" y="-46.3" font-family="Times,serif" font-size="14" text-anchor="middle">C# Samples</text></g><g id="edge38" class="edge"><title>OR_NET-&gt;EX_NET</title><path fill="none" stroke="#228b22" d="M1820.31,-372.78C1830.96,-362.01 1843.18,-347.48 1850,-332 1888.25,-245.24 1889.31,-129.79 1887.5,-78.07"/><polygon fill="#228b22" stroke="#228b22" points="1890.99 -77.88 1887.08 -68.03 1884 -78.17 1890.99 -77.88"/></g><g id="node38" class="node"><title>PKG_FS</title><polygon fill="#228b22" stroke="#000" points="1694 -69 1418 -69 1414 -65 1414 -31 1690 -31 1694 -35 1694 -69"/><polyline fill="none" stroke="#000" points="1690 -65 1414 -65"/><polyline fill="none" stroke="#000" points="1690 -65 1690 -31"/><polyline fill="none" stroke="#000" points="1690 -65 1694 -69"/><text x="1554" y="-53.8" font-family="Times,serif" font-size="14" text-anchor="middle">Nuget Google.OrTools.FSharp.nupkg</text><text x="1554" y="-38.8" font-family="Times,serif" font-size="14" text-anchor="middle">Target: package_dotnet</text></g><g id="edge48" class="edge"><title>OR_FS-&gt;PKG_FS</title><path fill="none" stroke="#228b22" d="M1641.99,-158.02C1628.88,-152.83 1615.71,-145.97 1605,-137 1586.41,-121.44 1572.93,-97.26 1564.51,-78.5"/><polygon fill="#228b22" stroke="#228b22" points="1567.71 -77.08 1560.57 -69.26 1561.27 -79.83 1567.71 -77.08"/><text x="1660" y="-125.8" font-family="Times,serif" font-size="14" text-anchor="middle">dotnet package</text></g><g id="node40" class="node"><title>EX_FS</title><polygon fill="#228b22" stroke="#000" points="1810 -68 1712 -68 1712 -32 1816 -32 1816 -62 1810 -68"/><polyline fill="none" stroke="#000" points="1810 -68 1810 -62"/><polyline fill="none" stroke="#000" points="1816 -62 1810 -62"/><text x="1764" y="-46.3" font-family="Times,serif" font-size="14" text-anchor="middle">F# Samples</text></g><g id="edge39" class="edge"><title>OR_FS-&gt;EX_FS</title><path fill="none" stroke="#228b22" d="M1710.3,-155C1720.89,-134.49 1738.29,-100.8 1750.4,-77.34"/><polygon fill="#228b22" stroke="#228b22" points="1753.6 -78.78 1755.07 -68.29 1747.38 -75.56 1753.6 -78.78"/></g><g id="edge46" class="edge"><title>PKG_NET_RT-&gt;PKG_NET</title><path fill="none" stroke="#228b22" d="M1580.39,-373C1594.48,-352.55 1617.59,-318.97 1633.74,-295.52"/><polygon fill="#228b22" stroke="#228b22" points="1636.77 -297.3 1639.55 -287.08 1631 -293.33 1636.77 -297.3"/></g><g id="edge44" class="edge"><title>PKG_NET-&gt;OR_FS</title><path fill="none" stroke="#228b22" d="M1661.68,-248.82C1668.79,-235.47 1678.58,-217.1 1686.61,-202.02"/><polygon fill="#228b22" stroke="#228b22" points="1689.73 -203.61 1691.34 -193.14 1683.55 -200.32 1689.73 -203.61"/><text x="1703.5" y="-214.8" font-family="Times,serif" font-size="14" text-anchor="middle">dotnet</text></g></g></svg>